<svg xmlns="http://www.w3.org/2000/svg" viewBox="0 0 234.96 418.02"><defs><style>.cls-1{fill:#2c3036;}</style></defs><g id="Layer_2" data-name="Layer 2"><g id="Layer_1-2" data-name="Layer 1"><path class="cls-1" d="M235,80.93v-31C222.72,40.58,211.09,31,198.75,22.54,182.44,11.33,164.9,2.7,144.8.35c-19.16-2.24-35.39,6.33-44.19,23.58-6,11.86-8.26,24.62-9.11,37.67-1.43,21.7,1.35,43.06,6,64.21.74,3.34,0,4.75-3.3,5.75A232.21,232.21,0,0,0,41.75,154.5c-11.44,6.88-22,14.82-30.44,25.35C1.4,192.26-3,206,2.17,221.66c3.23,9.8,9.51,17.71,17,24.68,17.49,16.31,38.56,26.49,60.61,34.91,6.15,2.35,12.42,4.38,18.66,6.56-.1.88-.14,1.38-.2,1.88-2.14,15.79-4.86,31.52-6.22,47.37A117,117,0,0,0,97,384c3.88,11.82,10,22.14,21.12,28.57,12,6.89,24.7,6.42,37.54,3.3,18.93-4.61,35.49-14.16,51-25.58,9.59-7.07,18.68-14.81,28.33-22.55V336.86L208.5,306.42H235V284.31q-13.36.18-26.74.3a94.88,94.88,0,0,1-13.36-.88,7.31,7.31,0,0,1-4.6-2.63,475,475,0,0,1-40.16-69.45,7,7,0,0,1,.08-5.25,477.45,477.45,0,0,1,39.73-69.25,7.79,7.79,0,0,1,5.23-2.93c13.34-.89,26.71-1.45,39.82-2.1V111.33H208.22l26.43-30.76ZM104.38,265.5a10.53,10.53,0,0,1-.88,1.38c-3.85-1.3-7.81-2.54-11.71-3.95-19.53-7.05-38.33-15.52-54.38-29a70,70,0,0,1-10.76-11.34c-7.24-9.55-7.11-17.69-.19-27.37,6-8.36,13.94-14.53,22.43-20,16.61-10.77,34.85-18,53.59-24a4,4,0,0,1,1.19.08c1,3.21,2,6.63,3.19,9.94,5.55,14.78,11.28,29.51,16.7,44.35a10.73,10.73,0,0,1,.08,6.79C117.36,230.1,110.84,247.79,104.38,265.5Zm77.88,41.29c12.1,15.11,24.37,30.11,36.87,45.49-.9.86-2.31,2.27-3.8,3.6-15.25,13.49-31.31,25.8-50,34.21-7.82,3.5-15.9,6.1-24.62,6.45-9.84.38-16.52-3.94-20.79-12.62-4.21-8.51-5.89-17.68-6.56-27-1.48-20.64.93-41,5.52-61.13.14-.6.33-1.2.58-2.14,8.57,1.76,16.76,3.66,25,5.06,10.55,1.79,21.17,3.27,31.78,4.67A8.42,8.42,0,0,1,182.26,306.79Zm-18.83-26.36-39.2-7.57,12.93-37.66Zm-26.07-98c-1.56-4-3.18-7.85-4.53-11.76-2.62-7.58-5.16-15.19-7.54-22.85-.29-.92.41-3.09,1-3.2,12.06-2.55,24.16-4.89,37.12-7.45C154.37,152.87,146,167.41,137.36,182.45ZM204.2,83.09c-7.68,9.37-15,19.06-22.71,28.37-1.31,1.58-4,2.43-6.19,2.81-14.31,2.44-28.68,4.59-43,7-4.25.72-8.42,1.93-13.28,3.07-1.22-6.28-2.57-12.33-3.56-18.43-2.53-15.66-4.2-31.43-2.17-47.24a95.78,95.78,0,0,1,5-21.49c5.12-13.59,14.24-17.93,28.59-15,14,2.82,26.63,8.88,38.16,17,10.94,7.67,21.22,16.28,31.8,24.46.91.7,1.9,1.28,2.92,2C214.12,71.85,209,77.3,204.2,83.09Z"/><path class="cls-1" d="M235,165.18V252.6h-.34a43.71,43.71,0,0,1,.29-87.42Z"/></g></g></svg>